<?xml version="1.0" encoding="utf-8"?>
<!-- Generator: Adobe Illustrator 23.0.4, SVG Export Plug-In . SVG Version: 6.00 Build 0)  -->
<svg version="1.1" id="Layer_1" xmlns="http://www.w3.org/2000/svg" xmlns:xlink="http://www.w3.org/1999/xlink" x="0px" y="0px"
	 viewBox="0 0 679.3 98.84" style="enable-background:new 0 0 679.3 98.84;" xml:space="preserve">
<g>
	<path d="M50.76,61.98H18.21L8.43,86.42h-5.1l31.2-77.06h0.42l31.2,77.06h-5.72L50.76,61.98z M48.89,57.19L34.64,20.9l-14.56,36.3
		H48.89z"/>
	<path d="M214.14,72.53c1.73,3.16,4.14,5.58,7.23,7.28c3.08,1.7,6.57,2.55,10.45,2.55c3.95,0,7.47-0.85,10.56-2.55
		c3.08-1.7,5.51-4.12,7.28-7.28c1.77-3.15,2.65-6.85,2.65-11.08V12.58h4.99v49.19c0,5.27-1.11,9.81-3.33,13.62
		c-2.22,3.81-5.25,6.74-9.1,8.79c-3.85,2.05-8.2,3.07-13.05,3.07c-4.78,0-9.1-1.02-12.95-3.07c-3.85-2.04-6.88-4.97-9.1-8.79
		c-2.22-3.81-3.33-8.35-3.33-13.62V12.58h5.1v48.88C211.54,65.69,212.41,69.38,214.14,72.53z"/>
	<path d="M285.49,12.58v73.84h-5.1V12.58H285.49z"/>
	<path d="M352.88,85.64c-3.4,1.07-7.04,1.61-10.92,1.61c-7.42,0-13.97-1.66-19.66-4.99c-5.69-3.33-10.11-7.83-13.26-13.52
		c-3.16-5.68-4.73-11.92-4.73-18.72c0-7.14,1.63-13.62,4.89-19.45c3.26-5.82,7.73-10.42,13.42-13.78
		c5.68-3.36,11.99-5.04,18.93-5.04c7.28,0,14,1.87,20.18,5.62l-2.18,4.68c-5.82-3.6-11.79-5.41-17.89-5.41
		c-5.76,0-11.09,1.47-16.02,4.42c-4.92,2.95-8.82,6.97-11.7,12.06c-2.88,5.1-4.32,10.66-4.32,16.69c0,5.96,1.32,11.42,3.95,16.38
		c2.63,4.96,6.38,8.89,11.23,11.8c4.85,2.91,10.47,4.37,16.85,4.37c6.38,0,12.38-1.77,17.99-5.3l2.39,4.47
		C359.32,83.19,356.27,84.56,352.88,85.64z"/>
	<path d="M385.85,49.5l0.31-0.94l36.5-35.98h6.55l-30.58,30.26l34.01,43.58h-6.45l-31.3-40.35l-8.94,8.53l0.1,31.82h-5.2V12.58h5.2
		v33.28L385.85,49.5z"/>
	<path d="M523.33,12.58v4.89H501.6v68.95h-5.1V17.47h-21.53v-4.89H523.33z"/>
	<path d="M582.3,86.42l-19.34-31.41c-1.46,0.28-3.29,0.42-5.51,0.42H546v30.99h-5.1V12.58h16.85c3.88,0,7.61,0.76,11.18,2.29
		c3.57,1.53,6.48,3.85,8.74,6.97c2.25,3.12,3.38,7,3.38,11.65c0,4.51-1.04,8.58-3.12,12.22c-2.08,3.64-5.3,6.29-9.67,7.96
		l19.97,32.76H582.3z M571.53,45.55c2.88-3.33,4.32-7.28,4.32-11.86c0-2.91-0.71-5.62-2.13-8.11c-1.42-2.5-3.45-4.47-6.08-5.93
		c-2.64-1.46-5.69-2.18-9.15-2.18H546v33.07h11.13C563.85,50.54,568.66,48.87,571.53,45.55z"/>
	<path d="M611.83,12.58v73.84h-5.1V12.58H611.83z"/>
	<path d="M669.09,17.93c4.12,3.57,6.19,8.75,6.19,15.55c0,3.88-0.83,7.49-2.5,10.82s-4.25,6.02-7.75,8.06
		c-3.5,2.05-7.89,3.07-13.16,3.07h-11.44v30.99h-5.1V12.58h17.06C659.4,12.58,664.96,14.36,669.09,17.93z M662.69,47.83
		c2.77-1.8,4.73-4,5.88-6.6c1.14-2.6,1.72-5.18,1.72-7.75c0-4.78-1.53-8.65-4.58-11.6c-3.05-2.95-7.32-4.42-12.79-4.42h-12.48v33.07
		h11.44C656.31,50.54,659.92,49.64,662.69,47.83z"/>
</g>
<g>
	<path d="M182.17,27.21L163.88,2.86l-3.94,2.99l9.13,12.33c-0.67-0.45-1.34-0.88-2.04-1.3c-5.82-3.43-12.13-5.15-18.93-5.15
		c-6.8,0-13.07,1.72-18.82,5.15c-5.76,3.43-10.33,8.04-13.73,13.83c-3.4,5.79-5.1,12.08-5.1,18.88c0,4.38,0.65,8.51,1.94,12.38h5.63
		c-1.58-3.85-2.37-7.94-2.37-12.28c0-5.82,1.44-11.27,4.32-16.33c2.88-5.06,6.79-9.1,11.75-12.12c4.96-3.02,10.42-4.52,16.38-4.52
		c5.89,0,11.34,1.49,16.33,4.47c0.58,0.35,1.14,0.72,1.69,1.09h-13.98l0.13,4.9h19.58c0.03,0.03,0.06,0.05,0.08,0.08h6.65
		c-0.02-0.03-0.04-0.05-0.06-0.08H182.17z"/>
	<path d="M168.18,81.53c5.41-3.4,9.72-7.92,12.95-13.57c3.22-5.65,4.84-11.77,4.84-18.36c0-4.44-0.74-8.66-2.19-12.67h-5.56
		c1.7,3.97,2.55,8.2,2.55,12.67c0,5.96-1.46,11.46-4.37,16.48c-2.91,5.03-6.88,9-11.91,11.91c-5.03,2.91-10.52,4.37-16.48,4.37
		c-5.89,0-11.3-1.47-16.22-4.42c-0.75-0.45-1.47-0.92-2.17-1.42h14.8l-0.13-4.9h-29.9l18.29,24.34l3.94-2.99l-8.2-11.08
		c0.26,0.15,0.51,0.32,0.78,0.47c5.75,3.26,12.06,4.89,18.93,4.89c2.63,0,5.27-0.28,7.9-0.83h32.03v-4.89H168.18z"/>
</g>
</svg>
