<?xml version="1.0" encoding="utf-8"?>
<!-- Generator: Adobe Illustrator 16.0.4, SVG Export Plug-In . SVG Version: 6.00 Build 0)  -->
<!DOCTYPE svg PUBLIC "-//W3C//DTD SVG 1.1//EN" "http://www.w3.org/Graphics/SVG/1.1/DTD/svg11.dtd">
<svg version="1.1" id="Layer_1" xmlns="http://www.w3.org/2000/svg" xmlns:xlink="http://www.w3.org/1999/xlink" x="0px" y="0px"
	 width="477px" height="114px" viewBox="0 0 477 114" enable-background="new 0 0 477 114" xml:space="preserve">
<g>
	<g>
		<g>
			<path d="M52.333,66.027c-16.229,8.54-36.305,2.305-44.842-13.922C-1.046,35.879,5.189,15.803,21.417,7.264
				c16.225-8.536,36.301-2.3,44.838,13.922c3.644,6.924,4.575,14.544,3.213,21.671l31.976,21.862l-37.27-9.201
				C61.225,59.792,57.247,63.447,52.333,66.027"/>
			<path fill="#FFFFFF" stroke="#000000" stroke-width="0.25" stroke-miterlimit="10" d="M54.855,45.154l5.172-11.692
				c0.1-0.229,0.152-0.397,0.152-0.502c0-0.152-0.08-0.245-0.239-0.28c-0.654-0.141-1.312-0.292-1.974-0.443
				c-0.662-0.156-1.302-0.354-1.933-0.596c-0.023,0-0.039-0.004-0.053-0.008c-0.008-0.004-0.023-0.004-0.046-0.004
				c-0.091,0-0.156,0.039-0.187,0.12c-0.06,0.151-0.144,0.382-0.247,0.678c-0.105,0.304-0.228,0.649-0.372,1.047
				c-0.144,0.394-0.294,0.817-0.458,1.272c-0.163,0.455-0.327,0.915-0.494,1.378c-0.167,0.46-0.331,0.911-0.49,1.354
				c-0.16,0.443-0.304,0.853-0.434,1.219c-0.132,0.365-0.244,0.685-0.34,0.949c-0.096,0.261-0.162,0.443-0.195,0.545l-1.53-8.442
				c-0.012-0.081-0.068-0.12-0.179-0.12c-0.049,0-0.09,0.004-0.113,0.012c-0.628,0.241-1.294,0.439-1.997,0.596
				c-0.705,0.151-1.381,0.303-2.036,0.443c-0.132,0.035-0.2,0.113-0.2,0.226c0,0.062,0.004,0.132,0.012,0.222
				c0.008,0.086,0.044,0.199,0.101,0.335c0.187,0.7,0.374,1.44,0.572,2.214c0.197,0.775,0.392,1.558,0.592,2.348
				c0.195,0.794,0.39,1.576,0.582,2.351c0.194,0.774,0.377,1.507,0.561,2.203c0.181,0.696,0.348,1.339,0.506,1.923
				c0.16,0.588,0.304,1.09,0.428,1.506c-0.428,0.958-0.763,1.713-1.004,2.281c-0.243,0.564-0.424,0.996-0.539,1.296
				c-0.119,0.292-0.19,0.495-0.22,0.588c-0.031,0.097-0.043,0.155-0.043,0.183c0,0.094,0.02,0.156,0.068,0.195
				c0.043,0.039,0.111,0.066,0.194,0.081c0.308,0.066,0.602,0.129,0.878,0.183c0.278,0.051,0.545,0.113,0.812,0.176
				c0.265,0.062,0.531,0.133,0.798,0.206c0.267,0.078,0.551,0.167,0.853,0.276c0.025,0.008,0.064,0.012,0.112,0.012
				c0.051,0,0.088-0.008,0.107-0.031c0.02-0.02,0.039-0.047,0.057-0.082L54.855,45.154z M40.514,35.046
				c0.201,0.055,0.379,0.136,0.547,0.237c0.167,0.098,0.31,0.215,0.422,0.351c0.111,0.132,0.167,0.272,0.167,0.424
				c0,0.159-0.068,0.327-0.212,0.499c-0.142,0.171-0.385,0.342-0.728,0.514c-0.345,0.171-0.802,0.342-1.368,0.51
				c-0.57,0.167-1.286,0.322-2.148,0.475c0.107-0.459,0.251-0.88,0.426-1.258c0.176-0.385,0.384-0.712,0.623-0.98
				c0.239-0.276,0.502-0.482,0.788-0.631c0.292-0.147,0.607-0.218,0.95-0.218C40.141,34.968,40.319,34.995,40.514,35.046
				 M37.003,32.24c-0.944,0.412-1.757,0.973-2.444,1.681c-0.682,0.716-1.211,1.554-1.586,2.507
				c-0.377,0.961-0.564,1.988-0.564,3.086c0,1.047,0.195,1.989,0.59,2.826c0.393,0.837,0.92,1.549,1.578,2.137
				c0.658,0.584,1.411,1.035,2.259,1.351c0.849,0.312,1.727,0.472,2.631,0.472c0.274,0,0.597-0.027,0.967-0.086
				c0.368-0.051,0.749-0.125,1.145-0.227c0.391-0.097,0.776-0.198,1.159-0.318c0.384-0.117,0.723-0.238,1.016-0.362
				c0.3-0.128,0.539-0.249,0.726-0.366c0.183-0.116,0.274-0.226,0.274-0.326c0-0.023-0.004-0.059-0.012-0.102
				c-0.008-0.039-0.027-0.082-0.053-0.125c0.01-0.416,0.018-0.797,0.021-1.145c0.004-0.342,0.004-0.634,0.004-0.879
				c0-0.241,0.008-0.498,0.016-0.763c-0.053,0-0.104,0.008-0.16,0.019c-0.052,0.012-0.119,0.027-0.195,0.043
				c-0.284,0.145-0.585,0.285-0.904,0.429c-0.315,0.14-0.646,0.269-0.989,0.39c-0.346,0.116-0.702,0.21-1.076,0.283
				c-0.371,0.066-0.761,0.102-1.16,0.102c-0.362,0-0.714-0.039-1.053-0.121c-0.338-0.077-0.64-0.202-0.909-0.369
				c-0.267-0.168-0.49-0.378-0.666-0.639c-0.175-0.257-0.282-0.568-0.313-0.93c0.553,0.101,1.08,0.151,1.582,0.151
				c0.963,0,1.845-0.128,2.651-0.39c0.804-0.26,1.494-0.599,2.066-1.02c0.57-0.416,1.018-0.887,1.335-1.408
				c0.319-0.525,0.479-1.047,0.479-1.568c0-0.584-0.126-1.172-0.377-1.756c-0.251-0.588-0.607-1.117-1.072-1.592
				c-0.467-0.471-1.022-0.856-1.67-1.152c-0.65-0.3-1.372-0.443-2.168-0.443C38.992,31.629,37.951,31.831,37.003,32.24
				 M26.115,29.414c-0.008,0.183-0.025,0.49-0.053,0.918c-0.023,0.452-0.083,1.066-0.175,1.846
				c-0.092,0.782-0.175,1.724-0.251,2.841l-4.56,0.047l0.251-1.942c0.075-0.404,0.136-0.798,0.175-1.188
				c0.045-0.381,0.084-0.785,0.121-1.214c0.039-0.425,0.076-0.888,0.107-1.382s0.08-1.043,0.141-1.646
				c0-0.214-0.021-0.362-0.064-0.432c-0.045-0.07-0.121-0.105-0.239-0.105c-0.115,0-0.232,0.016-0.339,0.047l-4.27,1.043
				c-0.171,0.039-0.267,0.121-0.298,0.241c-0.027,0.113-0.053,0.323-0.068,0.611c-0.023,0.245-0.052,0.541-0.08,0.884
				c-0.031,0.342-0.06,0.677-0.083,0.996c-0.023,0.323-0.043,0.6-0.064,0.837c-0.016,0.233-0.023,0.358-0.023,0.378l-0.286,3.023
				c-0.053,0.078-0.159,0.242-0.323,0.498c-0.163,0.258-0.346,0.541-0.55,0.865c-0.207,0.322-0.422,0.649-0.642,0.98
				c-0.222,0.33-0.419,0.615-0.586,0.848c-0.123,0.176-0.187,0.316-0.187,0.429c0,0.159,0.151,0.253,0.459,0.296
				c0.306,0.035,0.796,0.055,1.473,0.055l-0.023,0.361c-0.06,0.58-0.115,1.164-0.175,1.764c-0.06,0.592-0.107,1.172-0.151,1.736
				c-0.039,0.567-0.076,1.104-0.107,1.623c-0.029,0.514-0.045,0.973-0.045,1.373c0,0.176,0.045,0.296,0.133,0.366
				c0.087,0.065,0.19,0.097,0.312,0.097c0.138,0,0.286-0.023,0.43-0.065c0.148-0.051,0.271-0.094,0.37-0.133
				c0.204-0.077,0.494-0.183,0.874-0.323c0.381-0.136,0.769-0.275,1.156-0.416c0.39-0.133,0.734-0.257,1.032-0.361
				c0.295-0.102,0.463-0.164,0.494-0.184c0.091-0.039,0.148-0.094,0.171-0.168c0.02-0.069,0.037-0.144,0.045-0.217l0.514-5.504
				h4.595c-0.016,0.117-0.02,0.226-0.016,0.326c0.004,0.098-0.004,0.211-0.02,0.328c-0.092,1.047-0.196,2.098-0.315,3.16
				c-0.115,1.059-0.175,2.094-0.175,3.105c0,0.176,0.043,0.296,0.13,0.362c0.088,0.058,0.193,0.089,0.308,0.089
				c0.084,0,0.243-0.031,0.479-0.097c0.235-0.07,0.502-0.151,0.806-0.253c0.297-0.102,0.617-0.211,0.952-0.331
				c0.335-0.124,0.65-0.237,0.944-0.347c0.292-0.108,0.547-0.206,0.759-0.291c0.214-0.082,0.35-0.137,0.411-0.164
				c0.084-0.031,0.138-0.086,0.162-0.164c0.025-0.069,0.041-0.147,0.048-0.221l0.594-6.193c0.064-0.763,0.129-1.451,0.187-2.066
				c0.056-0.619,0.121-1.188,0.189-1.717l0.226-1.782c0.101-0.425,0.177-0.923,0.228-1.495c0.049-0.568,0.096-1.144,0.136-1.72
				l0.152-1.974c0-0.214-0.021-0.362-0.064-0.432c-0.041-0.07-0.12-0.105-0.239-0.105c-0.115,0-0.228,0.016-0.339,0.047l-4.32,1.043
				c-0.167,0.039-0.278,0.121-0.331,0.234c-0.056,0.113-0.083,0.323-0.083,0.619C26.127,29.126,26.123,29.231,26.115,29.414"/>
		</g>
	</g>
	<g>
		<g>
			<path fill="#FFFFFF" d="M188.987,44.226c2.901-2.53,6.879-3.791,11.934-3.791c4.807,0,8.442,1.214,10.909,3.644
				c2.466,2.432,3.739,6.036,3.822,10.82l-32.196,0.116C184.245,50.348,186.091,46.748,188.987,44.226 M220.251,73.82
				c-1.491,1.12-3.232,2.109-5.221,2.949c-1.697,0.732-3.731,1.401-6.089,2.001c-2.364,0.6-5.035,0.896-8.02,0.896
				c-5.508,0-9.736-1.503-12.677-4.516c-2.942-3.004-4.581-7.271-4.912-12.789l41.023-0.226c0.623-5.79,0.379-10.573-0.716-14.353
				c-1.1-3.779-2.767-6.769-5.001-8.972c-2.236-2.199-4.924-3.74-8.051-4.624c-3.129-0.891-6.393-1.331-9.789-1.331
				c-4.103,0-7.853,0.615-11.252,1.849c-3.396,1.234-6.329,3.017-8.797,5.352c-2.461,2.336-4.367,5.181-5.711,8.536
				c-1.351,3.358-2.024,7.153-2.024,11.402c0,4.242,0.673,8.049,2.024,11.427c1.345,3.379,3.25,6.228,5.711,8.563
				c2.468,2.335,5.4,4.125,8.797,5.387c3.399,1.245,7.149,1.876,11.252,1.876c3.854,0,7.272-0.405,10.254-1.215
				s5.5-1.697,7.553-2.662c2.049-0.965,3.604-1.853,4.663-2.662c1.053-0.81,1.582-1.23,1.582-1.276L220.251,73.82z"/>
			<path fill="#FFFFFF" d="M363.062,41.135l12.237,3.877v33.906h-10.688v7.349h33.068v-7.349h-12.432v-33.56
				c1.494-0.731,3.067-1.39,4.725-1.97c1.448-0.502,3.106-0.965,4.975-1.386c1.86-0.428,3.854-0.638,5.963-0.638l1.246,6.597
				l8.267-1.619l-2.18-12.443c-0.124-0.034-0.374-0.073-0.747-0.116c-0.327-0.035-0.817-0.066-1.456-0.086
				c-0.646-0.016-1.502-0.027-2.584-0.027c-2.608,0-5.037,0.211-7.302,0.639c-2.258,0.42-4.273,0.93-6.057,1.529
				c-1.782,0.6-3.301,1.219-4.569,1.853c-1.261,0.639-2.203,1.148-2.825,1.534l-16.971-5.441L363.062,41.135z"/>
			<path fill="#FFFFFF" d="M319.556,44.226c2.903-2.53,6.882-3.791,11.934-3.791c4.811,0,8.446,1.214,10.914,3.644
				c2.468,2.432,3.736,6.036,3.821,10.82l-32.195,0.116C314.815,50.348,316.66,46.748,319.556,44.226 M350.818,73.82
				c-1.487,1.12-3.23,2.109-5.216,2.949c-1.697,0.732-3.729,1.401-6.095,2.001c-2.359,0.6-5.029,0.896-8.019,0.896
				c-5.503,0-9.738-1.503-12.673-4.516c-2.942-3.004-4.585-7.271-4.912-12.789l41.023-0.226c0.623-5.79,0.374-10.573-0.716-14.353
				c-1.105-3.779-2.771-6.769-5.005-8.972c-2.234-2.199-4.92-3.74-8.05-4.624c-3.129-0.891-6.391-1.331-9.792-1.331
				c-4.095,0-7.847,0.615-11.249,1.849c-3.394,1.234-6.328,3.017-8.796,5.352c-2.46,2.336-4.367,5.181-5.714,8.536
				c-1.347,3.358-2.024,7.153-2.024,11.402c0,4.242,0.678,8.049,2.024,11.427c1.347,3.379,3.254,6.228,5.714,8.563
				c2.468,2.335,5.402,4.125,8.796,5.387c3.402,1.245,7.154,1.876,11.249,1.876c3.853,0,7.278-0.405,10.26-1.215
				c2.98-0.81,5.495-1.697,7.551-2.662c2.047-0.965,3.604-1.853,4.662-2.662c1.051-0.81,1.58-1.23,1.58-1.276L350.818,73.82z"/>
			<path fill="#FFFFFF" d="M460.484,67.195c-0.748,2.568-1.861,4.779-3.332,6.625c-1.472,1.853-3.316,3.292-5.535,4.312
				c-2.211,1.027-4.771,1.533-7.667,1.533c-2.281,0-4.29-0.156-6.033-0.459c-1.743-0.312-3.215-0.662-4.413-1.044
				c-1.371-0.428-2.569-0.934-3.604-1.502V44.833c1.159-0.813,2.46-1.546,3.915-2.199c1.246-0.537,2.756-1.043,4.539-1.507
				c1.782-0.463,3.806-0.692,6.087-0.692c5.8,0,10.112,1.546,12.93,4.632c2.817,3.082,4.228,7.617,4.228,13.596
				C461.598,61.785,461.224,64.627,460.484,67.195 M469.771,47.522c-1.354-3.223-3.238-5.912-5.659-8.072s-5.301-3.799-8.633-4.92
				c-3.34-1.121-6.975-1.678-10.906-1.678c-2.864,0-5.526,0.394-7.994,1.184c-2.46,0.794-4.693,1.688-6.679,2.693V14.684
				L410.57,8.55l-2.67,7.349l12.113,3.876v60.817c1.906,1.238,4.086,2.359,6.522,3.355c2.118,0.849,4.647,1.611,7.59,2.289
				c2.942,0.677,6.259,1.012,9.948,1.012c4.103,0,7.847-0.693,11.249-2.086c3.394-1.386,6.312-3.332,8.757-5.839
				s4.336-5.519,5.69-9.03c1.347-3.51,2.017-7.387,2.017-11.631C471.787,54.454,471.117,50.741,469.771,47.522"/>
			<path fill="#FFFFFF" d="M136.167,50.625h-11.873V24.644h11.498c2.734,0,5.149,0.136,7.243,0.401
				c2.088,0.272,3.842,0.876,5.252,1.821c1.407,0.95,2.475,2.328,3.2,4.142c0.722,1.813,1.09,4.281,1.09,7.406
				c0,2.662-0.543,4.796-1.619,6.396c-1.08,1.6-2.423,2.833-4.039,3.697c-1.617,0.876-3.386,1.44-5.317,1.713
				C139.677,50.488,137.863,50.625,136.167,50.625 M147.911,57.685c2.319-0.618,4.433-1.494,6.342-2.631
				c1.901-1.141,3.526-2.53,4.879-4.169c1.347-1.643,2.382-3.506,3.104-5.612c0.726-2.102,1.088-4.429,1.088-6.975
				c0-3.854-0.454-7.165-1.362-9.921c-0.913-2.76-2.44-5.018-4.571-6.776c-2.137-1.752-4.963-3.044-8.487-3.877
				c-3.519-0.829-7.87-1.237-13.052-1.237h-33.745v8.158h11.873v53.465h-11.873v8.157h30.202v-8.157h-8.139v-19.21h14.192
				l37.877,50.16l9.281-5.769L147.911,57.685z"/>
		</g>
		<polygon fill="#FFFFFF" points="292.49,35.011 303.431,35.91 304.47,28.429 285.975,27.079 264.357,76.12 248.321,40.764 
			254.226,40.764 254.226,33.415 227.374,33.415 227.374,40.764 237.939,40.764 258.199,84.278 268.958,84.278 		"/>
		<path fill="#FFFFFF" d="M188.987,44.226c2.901-2.53,6.879-3.791,11.934-3.791c4.807,0,8.442,1.214,10.909,3.644
			c2.466,2.432,3.739,6.036,3.822,10.82l-32.196,0.116C184.245,50.348,186.091,46.748,188.987,44.226 M220.251,73.82
			c-1.491,1.12-3.232,2.109-5.221,2.949c-1.697,0.732-3.731,1.401-6.089,2.001c-2.364,0.6-5.035,0.896-8.02,0.896
			c-5.508,0-9.736-1.503-12.677-4.516c-2.942-3.004-4.581-7.271-4.912-12.789l41.023-0.226c0.623-5.79,0.379-10.573-0.716-14.353
			c-1.1-3.779-2.767-6.769-5.001-8.972c-2.236-2.199-4.924-3.74-8.051-4.624c-3.129-0.891-6.393-1.331-9.789-1.331
			c-4.103,0-7.853,0.615-11.252,1.849c-3.396,1.234-6.329,3.017-8.797,5.352c-2.461,2.336-4.367,5.181-5.711,8.536
			c-1.351,3.358-2.024,7.153-2.024,11.402c0,4.242,0.673,8.049,2.024,11.427c1.345,3.379,3.25,6.228,5.711,8.563
			c2.468,2.335,5.4,4.125,8.797,5.387c3.399,1.245,7.149,1.876,11.252,1.876c3.854,0,7.272-0.405,10.254-1.215
			s5.5-1.697,7.553-2.662c2.049-0.965,3.604-1.853,4.663-2.662c1.053-0.81,1.582-1.23,1.582-1.276L220.251,73.82z"/>
		<path fill="#FFFFFF" d="M363.062,41.135l12.237,3.877v33.906h-10.688v7.349h33.068v-7.349h-12.432v-33.56
			c1.494-0.731,3.067-1.39,4.725-1.97c1.448-0.502,3.106-0.965,4.975-1.386c1.86-0.428,3.854-0.638,5.963-0.638l1.246,6.597
			l8.267-1.619l-2.18-12.443c-0.124-0.034-0.374-0.073-0.747-0.116c-0.327-0.035-0.817-0.066-1.456-0.086
			c-0.646-0.016-1.502-0.027-2.584-0.027c-2.608,0-5.037,0.211-7.302,0.639c-2.258,0.42-4.273,0.93-6.057,1.529
			c-1.782,0.6-3.301,1.219-4.569,1.853c-1.261,0.639-2.203,1.148-2.825,1.534l-16.971-5.441L363.062,41.135z"/>
		<path fill="#FFFFFF" d="M319.556,44.226c2.903-2.53,6.882-3.791,11.934-3.791c4.811,0,8.446,1.214,10.914,3.644
			c2.468,2.432,3.736,6.036,3.821,10.82l-32.195,0.116C314.815,50.348,316.66,46.748,319.556,44.226 M350.818,73.82
			c-1.487,1.12-3.23,2.109-5.216,2.949c-1.697,0.732-3.729,1.401-6.095,2.001c-2.359,0.6-5.029,0.896-8.019,0.896
			c-5.503,0-9.738-1.503-12.673-4.516c-2.942-3.004-4.585-7.271-4.912-12.789l41.023-0.226c0.623-5.79,0.374-10.573-0.716-14.353
			c-1.105-3.779-2.771-6.769-5.005-8.972c-2.234-2.199-4.92-3.74-8.05-4.624c-3.129-0.891-6.391-1.331-9.792-1.331
			c-4.095,0-7.847,0.615-11.249,1.849c-3.394,1.234-6.328,3.017-8.796,5.352c-2.46,2.336-4.367,5.181-5.714,8.536
			c-1.347,3.358-2.024,7.153-2.024,11.402c0,4.242,0.678,8.049,2.024,11.427c1.347,3.379,3.254,6.228,5.714,8.563
			c2.468,2.335,5.402,4.125,8.796,5.387c3.402,1.245,7.154,1.876,11.249,1.876c3.853,0,7.278-0.405,10.26-1.215
			c2.98-0.81,5.495-1.697,7.551-2.662c2.047-0.965,3.604-1.853,4.662-2.662c1.051-0.81,1.58-1.23,1.58-1.276L350.818,73.82z"/>
		<path fill="#FFFFFF" d="M460.484,67.195c-0.748,2.568-1.861,4.779-3.332,6.625c-1.472,1.853-3.316,3.292-5.535,4.312
			c-2.211,1.027-4.771,1.533-7.667,1.533c-2.281,0-4.29-0.156-6.033-0.459c-1.743-0.312-3.215-0.662-4.413-1.044
			c-1.371-0.428-2.569-0.934-3.604-1.502V44.833c1.159-0.813,2.46-1.546,3.915-2.199c1.246-0.537,2.756-1.043,4.539-1.507
			c1.782-0.463,3.806-0.692,6.087-0.692c5.8,0,10.112,1.546,12.93,4.632c2.817,3.082,4.228,7.617,4.228,13.596
			C461.598,61.785,461.224,64.627,460.484,67.195 M469.771,47.522c-1.354-3.223-3.238-5.912-5.659-8.072s-5.301-3.799-8.633-4.92
			c-3.34-1.121-6.975-1.678-10.906-1.678c-2.864,0-5.526,0.394-7.994,1.184c-2.46,0.794-4.693,1.688-6.679,2.693V14.684L410.57,8.55
			l-2.67,7.349l12.113,3.876v60.817c1.906,1.238,4.086,2.359,6.522,3.355c2.118,0.849,4.647,1.611,7.59,2.289
			c2.942,0.677,6.259,1.012,9.948,1.012c4.103,0,7.847-0.693,11.249-2.086c3.394-1.386,6.312-3.332,8.757-5.839
			s4.336-5.519,5.69-9.03c1.347-3.51,2.017-7.387,2.017-11.631C471.787,54.454,471.117,50.741,469.771,47.522"/>
		<path fill="#FFFFFF" d="M136.167,50.625h-11.873V24.644h11.498c2.734,0,5.149,0.136,7.243,0.401
			c2.088,0.272,3.842,0.876,5.252,1.821c1.407,0.95,2.475,2.328,3.2,4.142c0.722,1.813,1.09,4.281,1.09,7.406
			c0,2.662-0.543,4.796-1.619,6.396c-1.08,1.6-2.423,2.833-4.039,3.697c-1.617,0.876-3.386,1.44-5.317,1.713
			C139.677,50.488,137.863,50.625,136.167,50.625 M147.911,57.685c2.319-0.618,4.433-1.494,6.342-2.631
			c1.901-1.141,3.526-2.53,4.879-4.169c1.347-1.643,2.382-3.506,3.104-5.612c0.726-2.102,1.088-4.429,1.088-6.975
			c0-3.854-0.454-7.165-1.362-9.921c-0.913-2.76-2.44-5.018-4.571-6.776c-2.137-1.752-4.963-3.044-8.487-3.877
			c-3.519-0.829-7.87-1.237-13.052-1.237h-33.745v8.158h11.873v53.465h-11.873v8.157h30.202v-8.157h-8.139v-19.21h14.192
			l37.877,50.16l9.281-5.769L147.911,57.685z"/>
		<polygon fill="#FFFFFF" points="292.49,35.011 303.431,35.91 304.47,28.429 285.975,27.079 264.357,76.12 248.321,40.764 
			254.226,40.764 254.226,33.415 227.374,33.415 227.374,40.764 237.939,40.764 258.199,84.278 268.958,84.278 		"/>
	</g>
</g>
</svg>
